<?xml version="1.0" encoding="iso-8859-1"?>
<!-- Generator: Adobe Illustrator 16.0.4, SVG Export Plug-In . SVG Version: 6.00 Build 0)  -->
<!DOCTYPE svg PUBLIC "-//W3C//DTD SVG 1.1//EN" "http://www.w3.org/Graphics/SVG/1.1/DTD/svg11.dtd">
<svg version="1.1"
	 id="Capa_1" text-rendering="geometricPrecision" image-rendering="optimizeQuality" shape-rendering="geometricPrecision"
	 xmlns="http://www.w3.org/2000/svg" xmlns:xlink="http://www.w3.org/1999/xlink" x="0px" y="0px" width="300px" height="300px"
	 viewBox="0 0 300 300" style="enable-background:new 0 0 300 300;" xml:space="preserve">
<path d="M189.999,15.195H110L70,78.841l15.278,102.983l15.279,102.98H150h49.443l15.278-102.98L230,78.841L189.999,15.195z
	 M205.176,179.676l-13.025,96.036H150h-42.151l-13.025-96.036L81.798,83.642l34.101-59.354h68.202l34.101,59.354L205.176,179.676z"
	/>
<path d="M180.312,29.972h-60.624L89.376,86.641l11.578,91.695l11.579,91.692H150h37.467l11.578-91.694l11.578-91.693L180.312,29.972
	z M181.826,84.059c-0.178,4.125-2.465,6.607-6.675,7.596c-0.325,1.884-0.778,3.769-1.46,5.658c-1.371,0.3-2.645,0.292-3.893,0.223
	c-0.662-4.117-2.629-5.584-5.803-6.473l-5.838,0.16l0.285,36.188c0.963,3.149,2.473,5.083,6.6,5.657
	c0.101,1.248,0.135,2.518-0.133,3.895c-1.842,0.708-3.687,1.202-5.533,1.566c-5.289-0.671-10.62,0.089-15.938,0.205
	c0-0.003-0.001-0.007-0.001-0.009c-1.884-0.324-3.769-0.782-5.655-1.461c-0.301-1.37-0.295-2.641-0.222-3.891
	c4.114-0.666,5.58-2.634,6.47-5.803l-0.514-36.184l-5.842-0.031c-3.149,0.958-5.085,2.468-5.658,6.6
	c-1.248,0.096-2.52,0.133-3.897-0.138c-0.718-1.872-1.219-3.748-1.585-5.624c-4.229-0.895-6.572-3.326-6.838-7.444l0.003-0.095
	l-0.005-0.043l0.013-0.302l-0.02-0.303l0.004-0.045l-0.006-0.092c0.175-4.125,2.463-6.603,6.673-7.596
	c0.324-1.884,0.782-3.769,1.459-5.658c1.37-0.297,2.643-0.291,3.891-0.218c0.667,4.113,2.633,5.579,5.804,6.466l5.839-0.159
	l0.039-6.748c-0.961-3.148-2.471-5.084-6.599-5.659c-0.1-1.247-0.133-2.517,0.136-3.895c1.871-0.719,3.745-1.214,5.621-1.581
	c0.9-4.235,3.33-6.577,7.446-6.843h0.066l0.339,0.014l0.337-0.021l0.066-0.002c4.123,0.175,6.604,2.462,7.596,6.676
	c1.885,0.325,3.77,0.779,5.656,1.458c0.299,1.369,0.293,2.64,0.221,3.889c-4.115,0.667-5.58,2.635-6.472,5.804l0.19,6.747
	l5.839,0.028c3.155-0.958,5.089-2.466,5.659-6.594c1.247-0.101,2.52-0.135,3.895,0.132c0.726,1.873,1.221,3.748,1.586,5.623
	c4.23,0.9,6.574,3.327,6.843,7.447l-0.007,0.093v0l0.008,0.042l-0.016,0.303l0.023,0.303l-0.009,0.042L181.826,84.059z"/>
</svg>
