<?xml version="1.0" encoding="utf-8"?>
<!-- Generator: Adobe Illustrator 16.0.4, SVG Export Plug-In . SVG Version: 6.00 Build 0)  -->
<!DOCTYPE svg PUBLIC "-//W3C//DTD SVG 1.1//EN" "http://www.w3.org/Graphics/SVG/1.1/DTD/svg11.dtd">
<svg version="1.1"
	 id="Capa_1" shape-rendering="geometricPrecision" text-rendering="geometricPrecision" image-rendering="optimizeQuality"
	 xmlns="http://www.w3.org/2000/svg" xmlns:xlink="http://www.w3.org/1999/xlink" x="0px" y="0px" width="300px" height="300px"
	 viewBox="0 0 300 300" enable-background="new 0 0 300 300" xml:space="preserve">
<path d="M219.586,229.982c-45.015-4.359-18.483-81.756-9.129-75.143c19.475,9.604,18.479-13.514,49.91,15.415
	c12.688-37.076,5.659-66.756-9.504-56.94c-18.835,13.473-35.666,20.27-32.436,10C253.929,27.84,96.803,0.686,84.745,106.821
	c-6.919,13.17-30.664-13.598-39.93-12.703c-12.335,3.254-14.82,21.874-8.354,54.356c26.053-25.11,24.612-8.347,45.249-11.344
	c5.557,84.883,45.253,130.244,138.777,113.271c18.238-4.051,33.199,1.17,46.512,11.012
	C265.619,244.273,249.91,233.811,219.586,229.982z M116.083,74.877l28.864,28.431C125.482,113.064,104.759,95.549,116.083,74.877z
	 M183.043,135.35L183.043,135.35c-2.094,5.582-5.791,11.259-11.104,17.034l-4.1-6.502l-9.617,10.7l-6.462-11.414l-9.813,12.507
	l-3.672-14.951l-9.514,9.701l-3.515-17.979l-10.222,8.819l-0.698-15.863l-4.526,3.359c-0.54-2.89-0.941-8.13-1.194-15.713
	c5.835,11.286,16.076,19.199,30.728,23.722c2.076,0.502,4.538,0.903,7.391,1.207C159.688,141.363,171.799,139.819,183.043,135.35
	L183.043,135.35L183.043,135.35z M167.275,106.541l37.428-15.511C207.438,114.441,181.653,122.893,167.275,106.541z"/>
</svg>
