<?xml version="1.0" encoding="utf-8"?>
<!-- Generator: Adobe Illustrator 16.0.4, SVG Export Plug-In . SVG Version: 6.00 Build 0)  -->
<!DOCTYPE svg PUBLIC "-//W3C//DTD SVG 1.1//EN" "http://www.w3.org/Graphics/SVG/1.1/DTD/svg11.dtd">
<svg version="1.1"
	 id="Capa_1" shape-rendering="geometricPrecision" text-rendering="geometricPrecision" image-rendering="optimizeQuality"
	 xmlns="http://www.w3.org/2000/svg" xmlns:xlink="http://www.w3.org/1999/xlink" x="0px" y="0px" width="300px" height="300px"
	 viewBox="0 0 300 300" enable-background="new 0 0 300 300" xml:space="preserve">
<path d="M241.777,239.88l-3.318-1.115v-71.974l-5.158-7.379l5.158-7.378l-1.102-60.907l-6.988-22.878l-6.244-6.279l-1.848-11.064
	l-19.124-23.257c-6.771-6.789-16.135-11.045-28.089-12.768l4.424,1.318c-0.983,4.19-3.189,7.191-6.637,9.039
	c-3.438,1.834-7.499,2.76-12.158,2.76h-4.799l-11.422,2.209c-1.234,0.991-1.471,1.847-0.732,2.585c0.732,0.98,0,2.096-2.215,3.318
	l-7.006,3.317c-2.457,1.467-3.688,3.448-3.688,5.899c0,2.716,0.249,5.093,0.737,7.189c0.494,2.085,1.235,4.232,2.217,6.445
	c2.217,4.175,4.783,6.885,7.74,8.111l5.157,1.47l6.635,2.212h-8.105l-0.375,4.804l0.375,9.565l-2.582-7l-2.575-7.369l-6.637-6.627
	c-3.693-4.19-5.527-7.619-5.527-10.329l-1.479-6.268l-3.683,5.166l-3.683,3.318c-0.737,0.983-2.217,1.477-4.419,1.477
	c-1.982,0.238-3.697,1.041-5.167,2.392c-1.483,1.354-2.581,3.378-3.319,6.073l-2.202,7.016l-4.799,6.632
	c-1.151,1.149-2.143,2.327-2.967,3.525l2.598-5.005l2.02-7.369c0.456-3.438,1.469-6.573,3.046-9.398
	c1.582-2.825,2.59-5.342,3.042-7.558l-5.9,2.949c-2.705,1.48-5.036,2.213-6.996,2.213c-1.485-0.494-2.955-1.471-4.429-2.947
	c2.603-0.488,5.212-1.345,7.821-2.575c2.6-1.969,5.087-2.96,7.471-2.96l4.613,1.111l4.181,1.105c1.779-0.238,4.194-2.217,7.24-5.895
	l5.287-6.642l11.301-9.954l-4.426-1.097l-5.894-1.112c-3.682,0-6.886,1.112-9.586,3.323l-9.209,8.84
	c0.732-3.683,2.336-7.369,4.793-11.051c2.452-3.692,4.666-5.545,6.633-5.545h14.739l7.743,1.121l6.637,1.101
	c4.663,0,9.581-0.797,14.734-2.424c4.923-2.088,7.748-4.273,8.484-6.585v-2.264c-3.207-0.341-6.592-0.512-10.148-0.512
	c-18.881,0-35.063,2.853-48.545,8.541c-13.485,5.706-25.742,15.832-36.776,30.383l3.692,17.831
	c-0.742-0.737-2.092-1.115-4.056-1.115c-1.972,0-5.157,1.115-9.581,3.332l-2.95,1.854l0.37,1.853l1.844,8.503l-4.057,9.249
	l-1.839,39.208l14.376,9.237l-16.224,5.549l1.847,18.491v9.623v9.246v10.361l-1.847,11.456l3.687,75.458h7.195l7.18-12.172
	l-1.838,12.706l6.631-18.598l-2.216,18.063c3.936,1.963,9.089,2.939,15.49,2.939c5.887,0,12.158-0.488,18.795-1.465l4.416-1.475
	l2.217-16.584l2.581,16.584l15.841,1.475L158.85,286h6.262c1.48,0,3.195-0.234,5.168-0.729c1.953-0.487,3.43-0.736,4.419-0.736
	c3.927,0,8.103-0.746,12.526-2.203c1.228-1.484,2.333-4.674,3.319-9.602l1.111-7l1.843,15.117l2.207,1.102
	c4.67,1.729,9.459,2.586,14.375,2.586h9.215l9.58-2.964v-7.724c0-2.645-0.191-4.677-0.589-6.141l4.649,15.354l2.569-2.222
	l-2.569-11.804l6.639,11.804L241.777,239.88z M172.768,139.139c-2.523,2.122-14.855,0-18.411,0l2.771,37.008v0.001h-16.141
	l2.197-37.009h-19.531c-0.375,0-0.186-7.895-0.186-8.726c0-3.331,0.736-2.428,3.972-2.428h13.523c2.529,0,1.558-1.593,1.558-3.981
	v-12.439c0-3.318,0.169-2.679,3.569-2.679c1.45,0,8.267-0.833,8.267,0.76v11.295c0,0.652-0.243,7.044,0.215,7.044h10.704
	c1.945,0,7.492-1.219,7.492,1.16C172.768,130.593,173.752,138.354,172.768,139.139z"/>
</svg>
