<?xml version="1.0" encoding="utf-8"?>
<!-- Generator: Adobe Illustrator 16.0.4, SVG Export Plug-In . SVG Version: 6.00 Build 0)  -->
<!DOCTYPE svg PUBLIC "-//W3C//DTD SVG 1.1//EN" "http://www.w3.org/Graphics/SVG/1.1/DTD/svg11.dtd">
<svg version="1.1"
	 id="Capa_1" shape-rendering="geometricPrecision" text-rendering="geometricPrecision" image-rendering="optimizeQuality"
	 xmlns="http://www.w3.org/2000/svg" xmlns:xlink="http://www.w3.org/1999/xlink" x="0px" y="0px" width="300px" height="300px"
	 viewBox="0 0 300 300" enable-background="new 0 0 300 300" xml:space="preserve">
<g>
	<path d="M176.23,14.999h-58.733l-37.31,91.983l33.986,178.02l73.136-0.374l32.507-178.01L176.23,14.999z M175.873,269.115
		l-50.157,1.484L94.877,109.09l32.473-80.053h40.009l37.837,79.508L175.873,269.115z"/>
	<path d="M165.885,36.429L165.885,36.429l-34.718,1.848l-28.816,70.549l26.978,155.487h42.83l26.605-151.057L165.885,36.429z
		 M161.082,156.835h-18.098l2.216-30.286l-16.625,4.063v-21.425l16.263,1.486l-3.324-24.009l19.568,2.281l-2.216,21.728
		l16.987-2.957l1.108,21.788l-18.463-3.322L161.082,156.835z"/>
	<polygon points="155.176,93.32 148.528,92.57 150.744,116.578 133.76,115.103 133.76,123.966 151.106,119.534 148.528,151.295 
		155.176,151.295 152.959,119.902 171.424,123.235 171.424,113.618 152.959,116.578 	"/>
</g>
</svg>
