<?xml version="1.0" encoding="iso-8859-1"?>
<!-- Generator: Adobe Illustrator 16.0.4, SVG Export Plug-In . SVG Version: 6.00 Build 0)  -->
<!DOCTYPE svg PUBLIC "-//W3C//DTD SVG 1.1//EN" "http://www.w3.org/Graphics/SVG/1.1/DTD/svg11.dtd">
<svg version="1.1"
	 id="Capa_1" text-rendering="geometricPrecision" image-rendering="optimizeQuality" shape-rendering="geometricPrecision"
	 xmlns="http://www.w3.org/2000/svg" xmlns:xlink="http://www.w3.org/1999/xlink" x="0px" y="0px" width="300px" height="300px"
	 viewBox="0 0 300 300" style="enable-background:new 0 0 300 300;" xml:space="preserve">
<g>
	<path d="M247.766,234.857H51.387v29.495c0,6.407,5.241,11.647,11.647,11.647h173.931c6.406,0,11.645-5.241,11.645-11.647v-28.651
		C248.609,235.234,248.23,234.857,247.766,234.857z"/>
	<path d="M84.923,221.143h56.664c0.345-1.128,0.514-2.515,0.477-4.199l-1.363-94.17l-27.076,0.393
		c-7.979,0.05-9.192,4.481-7.329,10.902c-5.1-2.554-7.365-5.681-7.376-9.269c-0.002-2.439,1.037-5.093,2.942-7.916l0.554-0.784
		l-0.578-0.772c-1.985-2.771-3.103-5.391-3.168-7.832c-0.095-3.578,2.079-6.77,7.102-9.468c-1.677,6.467-0.334,10.857,7.646,10.683
		l27.072-0.395L140.1,81.245c-0.057-7.986-4.483-9.196-10.906-7.327c2.561-5.106,5.681-7.371,9.266-7.379
		c2.439-0.004,5.093,1.04,7.92,2.94l0.782,0.56l0.772-0.583c2.771-1.977,5.391-3.099,7.832-3.164
		c3.582-0.099,6.77,2.073,9.473,7.105c-6.475-1.682-10.859-0.339-10.688,7.638l0.395,27.072l27.071-0.391
		c7.983-0.054,9.194-4.483,7.324-10.898c5.106,2.55,7.374,5.679,7.38,9.257c0.009,2.441-1.033,5.093-2.936,7.918l-0.56,0.791
		l0.583,0.767c1.983,2.771,3.098,5.388,3.164,7.833c0.094,3.581-2.077,6.773-7.111,9.472c1.686-6.466,0.346-10.865-7.635-10.683
		l-27.072,0.391l1.363,94.17c0.014,1.799,0.246,3.255,0.676,4.409h65.853c10.739,0,19.528-8.789,19.528-19.531V103.08
		c0-43.494-35.584-79.08-79.079-79.08h-29.771C91.757,24,57.42,58.337,57.42,100.3v93.341
		C57.42,208.773,69.793,221.143,84.923,221.143z"/>
</g>
</svg>
