<svg width="300" xmlns="http://www.w3.org/2000/svg" height="300" viewBox="0 0 300 300" shape-rendering="geometricPrecision" xmlns:xlink="http://www.w3.org/1999/xlink" image-rendering="optimizeQuality" fill-rule="evenodd" text-rendering="geometricPrecision" enable-background="new 0 0 512 512" clip-rule="evenodd">
<g fill-rule="nonzero">
<path d="m133.272,76.4988c3.4016,3.0508 4.8295,6.9874 4.2874,11.8087 5.5996-3.0555 11.3327-4.102 17.211-3.1228 .9059,1.239 1.7445,2.4047 2.5169,3.4972 1.95,2.348 4.5177,4.0276 7.715,5.061 1.3287,.4441 2.5972,.6815 3.802,.7169 2.1496,.0626 5.6787-1.1185 10.5827-3.522 5.1047,.0106 9.0331,3.4866 11.7791,10.4138 1.7622-5.0575 4.6724-8.1248 8.7354-9.2185 4.5862-.7925 8.8264,1.1965 12.7146,6.013 .6685-4.5461 3.4323-7.2201 8.2949-8.0185 4.4362-.2728 9.8256,1.6335 16.1492,5.713-7.0807-19.6866-13.7669-29.876-20.0587-30.6083-3.5102,.5764-12.4134,4.1457-26.7071,10.715 .1512-.4016 .2941-.8693 .4488-1.4008 .7854-3.8634-.2468-7.6594-3.0968-11.3669 1.1835-12.8622 .8421-19.6583-1.0157-20.3894-1.7209-.848-5.2689,3.4228-10.6476,12.7866-1.7315-.4406-3.476-.7689-5.2098-.9484-1.1634-10.7776-2.687-16.2083-4.565-16.2626-2.015,.085-5.1532,6.4441-9.4193,19.0642-3.9614,2.4437-6.1453,5.7425-6.5303,9.8894-11.3138-12.8197-18.5492-20.211-21.7205-22.1799-.3921-.2846-.9248-.4335-1.5921-.4535-6.4441-.1866-16.1114,6.5835-28.9996,20.3138 2.9634-.4488 5.7272-.6402 8.276-.5657 3.7571,.1087 6.6957,.7299 8.8063,1.8591 3.1571,2.3846 4.6878,5.1803 4.5945,8.3965-.0236,.8055-.1146,1.5425-.2693,2.2122 2.8665-1.5319 5.6398-2.2571 8.3232-2.1791 2.2843,.0661 4.1492,.665 5.5949,1.7764z"/>
<path d="m249.111,137.76c-3.0236,2.5571-4.3595,5.9315-4.011,10.1209-4.774-2.7874-9.7134-3.8386-14.8311-3.1382-.815,1.05-1.5709,2.0386-2.2677,2.9658-1.748,1.9843-4.0146,3.3744-6.8102,4.1894-1.1622,.3508-2.2665,.5244-3.3106,.5244-1.8638,0-4.8909-1.1114-9.0791-3.3165-4.4209-.1205-7.911,2.7921-10.4646,8.7224-1.3984-4.4244-3.8433-7.1551-7.3347-8.2051-3.9531-.802-7.676,.8138-11.165,4.8886-.4642-3.9543-2.7909-6.3413-6.9827-7.1551-3.8362-.3484-8.5524,1.1669-14.1331,4.5413 6.6307-16.8744 12.6791-25.5319 18.1476-26.0067 3.0248,.587 10.6476,3.9035 22.8626,9.9543-.1205-.352-.2327-.7606-.3531-1.2248-.5835-3.3661 .4075-6.6295 2.9693-9.7689-.7016-11.1709-.2339-17.048 1.3937-17.635 1.513-.6909 4.4776,3.098 8.9008,11.3445 1.5118-.3378 3.0295-.5787 4.5366-.6898 1.2803-9.3071 2.7354-13.9724 4.3642-13.9724 1.7433,.1252 4.3016,5.7118 7.6783,16.7516 3.3697,2.2157 5.178,5.1283 5.4071,8.7295 10.1232-10.8189 16.5768-17.0386 19.3736-18.6638 .3461-.2374 .8126-.352 1.3913-.352 5.5854,0 13.7894,6.1087 24.6071,18.326-2.5559-.463-4.9453-.6992-7.1551-.6992-3.2575,0-5.8181,.4642-7.6748,1.389-2.7957,1.9866-4.1917,4.3689-4.1917,7.1563 0,.6992 .0602,1.3406 .1783,1.924-2.4449-1.3984-4.8284-2.0976-7.1551-2.0976-1.9807,0-3.6106,.4724-4.8909,1.3972z"/>
<path d="m108.935,175.603c1.9843,1.6783 2.8618,3.8929 2.6327,6.6437 3.1335-1.8295 6.3768-2.5193 9.7358-2.0598 .535,.6898 1.0311,1.3382 1.4882,1.9465 1.1469,1.3028 2.635,2.2157 4.4705,2.7508 .763,.2291 1.4882,.3437 2.1732,.3437 1.2236,0 3.2114-.7299 5.9598-2.1768 2.902-.0791 5.1933,1.8331 6.8693,5.726 .9189-2.9055 2.5228-4.6972 4.8142-5.387 2.5961-.5268 5.0398,.535 7.3299,3.2091 .3047-2.5961 1.8319-4.1622 4.5839-4.6972 2.5181-.228 5.6138,.7665 9.2776,2.9823-4.3535-11.0776-8.3232-16.7598-11.9126-17.0728-1.9866,.3862-6.9898,2.563-15.0083,6.535 .0791-.2303 .1524-.4996 .2315-.8043 .3827-2.2087-.2669-4.3512-1.9488-6.4122 .4606-7.3323 .1535-11.1909-.9154-11.576-.9921-.4535-2.9386,2.0339-5.8417,7.4469-.9933-.222-1.9902-.3803-2.9787-.4535-.8398-6.1087-1.7965-9.1713-2.8642-9.1713-1.1445,.0815-2.824,3.75-5.0409,10.9961-2.2122,1.4551-3.3992,3.3661-3.5492,5.7307-6.6449-7.102-10.8815-11.185-12.7169-12.2516-.228-.1559-.5339-.2315-.9142-.2315-3.6661,0-9.0508,4.0098-16.1528,12.0295 1.6783-.3035 3.2468-.4583 4.6972-.4583 2.1378,0 3.8185,.3047 5.0374,.9118 1.8354,1.3039 2.752,2.8677 2.752,4.6972 0,.4594-.0402,.8799-.1169,1.2626 1.6051-.9177 3.1701-1.376 4.6972-1.376 1.2992,0 2.3693,.3094 3.2102,.9165z"/>
<path d="m101.567,69.6307c-11.2429,7.4386-20.1661,17.2146-26.7638,29.2984-6.6106,12.0732-9.9059,25.1469-9.9059,39.1949 0,22.6335 8.0043,41.9457 24.0236,57.9614 16.0181,16.0157 35.4106,24.0224 58.1728,24.0224 25.4303,0 46.3654-9.6839 62.8098-29.0823-5.7673,20.6669-17.2441,37.5909-34.4634,50.7945-17.2134,13.2083-36.7795,19.8118-58.6925,19.8118-26.7047,0-49.5047-9.4169-68.3976-28.2402-18.9012-18.828-28.3524-41.5961-28.3524-68.2831 0-24.039 7.8035-45.039 23.3988-63.0224 15.5965-17.9787 34.9878-28.7988 58.1705-32.4555z"/>
</g>
</svg>
