<?xml version="1.0" encoding="utf-8"?>
<!-- Generator: Adobe Illustrator 16.0.4, SVG Export Plug-In . SVG Version: 6.00 Build 0)  -->
<!DOCTYPE svg PUBLIC "-//W3C//DTD SVG 1.1//EN" "http://www.w3.org/Graphics/SVG/1.1/DTD/svg11.dtd">
<svg version="1.1"
	 id="Capa_1" shape-rendering="geometricPrecision" text-rendering="geometricPrecision" image-rendering="optimizeQuality"
	 xmlns="http://www.w3.org/2000/svg" xmlns:xlink="http://www.w3.org/1999/xlink" x="0px" y="0px" width="300px" height="300px"
	 viewBox="0 0 300 300" enable-background="new 0 0 300 300" xml:space="preserve">
<path d="M249.84,132.355c-17.025-15.685-28.882-23.526-35.576-23.526c-4.975,0-11.094,2.486-18.359,7.457
	c-5.55,4.021-11.098,8.034-16.639,12.05c-4.211,2.296-10.045,4.02-17.504,5.165c-0.386-3.823-0.769-6.406-1.148-7.746
	c3.445-1.722,5.166-4.304,5.166-7.746c0-1.148-0.387-2.772-1.149-4.878c-0.763-2.1-1.146-3.825-1.146-5.165
	c0-1.336,0.285-3.63,0.859-6.886c-4.402,1.534-8.32,5.164-11.762,10.903c-1.342-0.574-2.395-0.86-3.158-0.86l-1.721,0.286
	c-3.636-5.354-7.459-8.894-11.476-10.613c-0.193,0.767-0.143,1.963,0.142,3.584c0.288,1.626,0.434,2.726,0.434,3.298
	c0,1.343-0.389,3.064-1.148,5.167c-0.767,2.106-1.149,3.633-1.149,4.59c0,2.871,1.337,5.451,4.016,7.745
	c-0.574,1.534-0.86,3.063-0.86,4.593c0,1.145,0.286,2.393,0.86,3.728c-0.574,0-3.348-0.523-8.32-1.577
	c-4.975-1.05-12.529-5.309-22.663-12.766c-9.376-6.888-16.741-10.33-22.093-10.33c-6.887,0-19.797,8.706-38.732,26.108
	c-17.98,16.452-27.355,26.968-28.116,31.557v0.285c2.868-0.759,9.943-4.587,21.23-11.475c10.136-6.119,17.689-9.178,22.663-9.178
	c2.296,0,3.827,1.482,4.594,4.445c0.76,2.967,1.434,5.787,2.007,8.465l0.575,0.286c3.441-6.118,7.17-9.182,11.188-9.182
	c4.015,0,8.702,10.235,14.058,30.699c4.204-8.414,8.321-12.622,12.338-12.622c3.44,0,10.134,10.232,20.083,30.696
	c4.205-6.313,7.744-9.468,10.613-9.468c0.954,0,2.249,1.054,3.875,3.154c1.622,2.107,4.061,3.442,7.316,4.02l1.146-0.29
	c0.577,0.386,1.149,0.573,1.726,0.573c1.527,0,3.295-1.238,5.305-3.729c2.009-2.482,3.488-3.729,4.447-3.729
	c3.445,0,7.553,3.256,12.338,9.756c9.753-21.613,16.447-32.424,20.083-32.424c3.44,0,7.747,4.594,12.908,13.774
	c2.104-20.082,5.835-30.126,11.19-30.126c3.057,0,6.979,3.73,11.762,11.189c0-0.187,0.671-3.344,2.01-9.468
	c0.955-4.016,2.676-6.022,5.162-6.022c4.399,0,12.671,3.441,24.82,10.326c12.145,6.888,18.311,10.326,18.505,10.326h0.86
	C276.424,158.176,265.907,146.697,249.84,132.355z M141.677,120.558l2.01-0.285c3.058,0,4.591,1.434,4.591,4.303v2.009l-1.723,0.286
	c-3.255,0-4.878-1.815-4.878-5.452V120.558z M82.577,133.79c-6.312,8.034-10.233,14.537-11.76,19.509
	c0.379-4.205,3.63-10.616,9.751-19.224c5.546-8.414,10.231-13.865,14.062-16.354c0.378-0.187,0.57-0.093,0.57,0.288
	C95.2,117.436,90.992,122.7,82.577,133.79z M95.49,176.539c0.188-5.546,1.721-13.961,4.587-25.248
	c3.058-13.005,5.928-20.558,8.609-22.667l0.286,0.861C101.894,148.806,97.398,164.487,95.49,176.539z M118.155,131.782
	c-7.082-2.676-13.965-7.361-20.66-14.06c-2.106-2.104-3.729-3.728-4.877-4.875c-0.574-0.381-2.2-0.575-4.875-0.575
	c-4.018,0-7.458,0.768-10.33,2.295c-5.738,3.444-14.25,10.042-25.532,19.796c-8.036,7.461-16.167,14.92-24.39,22.378
	c25.628-25.248,42.366-39.878,50.209-43.894c2.867-1.338,6.312-2.01,10.328-2.01c2.296,0,4.016,0.196,5.163,0.574
	c7.076,7.46,13.531,12.817,19.369,16.067c5.83,3.255,13.721,5.738,23.668,7.46l0.575,0.285c-0.96,0.386-1.724,0.575-2.297,0.575
	C130.103,135.797,124.654,134.463,118.155,131.782z M143.401,193.177c-7.653-8.413-11.477-18.936-11.477-31.56
	c0-13.386,2.009-21.898,6.023-25.532l0.289,0.573c-3.255,10.713-4.877,17.981-4.877,21.805v8.031
	C133.359,175.489,136.704,184.382,143.401,193.177L143.401,193.177z M151.434,139.494l-0.861-7.461h-2.009l-1.147,7.461
	l-0.861-8.321c2.676,0.768,4.685,0.768,6.026,0L151.434,139.494z M153.152,126.871l-1.719-0.286l-0.287-1.149
	c0-3.444,1.62-5.163,4.877-5.163l2.008,0.285v1.149C158.031,125.341,156.404,127.063,153.152,126.871z M156.452,193.177
	c6.696-8.796,10.042-17.689,10.042-26.683v-8.033c0-3.824-1.623-11.091-4.879-21.804l0.289-0.573
	c4.016,3.634,6.024,12.145,6.024,25.533C167.929,174.241,164.105,184.764,156.452,193.177z M205.086,171.085
	c-2.107-11.855-7.748-25.532-16.928-41.025l0.287-0.286h0.286c4.015,4.402,7.745,10.663,11.187,18.791
	c3.445,8.13,5.168,15.062,5.168,20.799V171.085z M229.755,158.463c-2.486-14.725-9.944-29.453-22.375-44.183l0.284-0.286
	c1.339,0,3.634,2.106,6.889,6.313c10.135,13.008,15.202,25.343,15.202,37.007V158.463z M242.953,130.348
	c-13.584-11.668-24.484-17.501-32.707-17.501c-1.339,0-2.389,0.192-3.156,0.573c-13.39,15.304-27.445,22.953-42.173,22.953
	l-2.294-0.286l0.575-0.574c17.4-3.059,31.65-10.806,42.747-23.241c1.529-0.573,3.344-0.861,5.449-0.861
	c4.396,0,8.126,0.861,11.191,2.584c6.116,3.634,14.629,10.427,25.531,20.368c3.252,3.064,11.188,10.811,23.816,23.241
	C262.366,148.421,252.711,139.338,242.953,130.348z"/>
</svg>
