<?xml version="1.0" encoding="utf-8"?>
<!-- Generator: Adobe Illustrator 16.0.4, SVG Export Plug-In . SVG Version: 6.00 Build 0)  -->
<!DOCTYPE svg PUBLIC "-//W3C//DTD SVG 1.1//EN" "http://www.w3.org/Graphics/SVG/1.1/DTD/svg11.dtd">
<svg version="1.1"
	 id="Capa_1" shape-rendering="geometricPrecision" text-rendering="geometricPrecision" image-rendering="optimizeQuality"
	 xmlns="http://www.w3.org/2000/svg" xmlns:xlink="http://www.w3.org/1999/xlink" x="0px" y="0px" width="300px" height="300px"
	 viewBox="0 0 300 300" enable-background="new 0 0 300 300" xml:space="preserve">
<g>
	<path d="M179.365,251.598c4.307-1.674,8.568-1.774,12.795,0c34.299-63.947,38.462-143.036-10.272-171.963
		c16.422-14.714,21.89-35.764,20.755-60.636c-34.521,51.382-69.676,50.054-105.417,0c1.22,22.879,5.953,43.943,20.784,59.797v0
		c-48.564,27.352-45.066,106.376-8.585,172.802c4.639-1.816,8.894-1.549,12.919,0c3.343-1.799,6.888-1.543,10.542,0
		c7.075,6.604,7.508,16.791,7.723,29.402h20.876c0.666-11.43-0.644-22.561,6.836-29.402
		C172.239,249.857,175.908,249.895,179.365,251.598z M122.067,154.151c-13.667,0-24.746-11.08-24.746-24.746
		c0-13.668,11.079-24.748,24.746-24.748c13.667,0,24.747,11.08,24.747,24.748C146.813,143.072,135.734,154.151,122.067,154.151z
		 M149.287,178.771c-3.43,0-16.553-21.864-7.281-21.864h14.668C165.969,156.906,152.779,178.771,149.287,178.771z M152.318,129.405
		c0-13.668,11.08-24.748,24.746-24.748c13.668,0,24.748,11.08,24.748,24.748c0,13.667-11.08,24.746-24.748,24.746
		C163.398,154.151,152.318,143.072,152.318,129.405z"/>
	<circle cx="130.087" cy="132.845" r="10.31"/>
	<circle cx="169.045" cy="132.845" r="10.31"/>
	<path d="M128.453,256.473c-2.562,0-4.81,2.136-6.082,5.354c-1.273-3.218-3.523-5.354-6.085-5.354c-2.653,0-4.973,2.292-6.215,5.701
		c-1.246-3.409-3.563-5.701-6.218-5.701c-3.972,0-7.19,5.13-7.19,11.456s3.218,11.456,7.19,11.456c2.655,0,4.972-2.292,6.218-5.701
		c1.243,3.409,3.562,5.701,6.215,5.701c2.562,0,4.812-2.137,6.085-5.354c1.272,3.218,3.52,5.354,6.082,5.354
		c3.968,0,7.188-5.13,7.188-11.456S132.421,256.473,128.453,256.473z"/>
	<path d="M197.729,256.473c-2.562,0-4.809,2.136-6.082,5.354c-1.271-3.218-3.521-5.354-6.084-5.354
		c-2.652,0-4.973,2.292-6.216,5.701c-1.246-3.409-3.563-5.701-6.219-5.701c-3.971,0-7.19,5.13-7.19,11.456s3.22,11.456,7.19,11.456
		c2.655,0,4.973-2.292,6.219-5.701c1.243,3.409,3.563,5.701,6.216,5.701c2.562,0,4.812-2.137,6.084-5.354
		c1.273,3.218,3.52,5.354,6.082,5.354c3.968,0,7.188-5.13,7.188-11.456S201.696,256.473,197.729,256.473z"/>
</g>
</svg>
