<?xml version="1.0" encoding="utf-8"?>
<!-- Generator: Adobe Illustrator 16.0.4, SVG Export Plug-In . SVG Version: 6.00 Build 0)  -->
<!DOCTYPE svg PUBLIC "-//W3C//DTD SVG 1.1//EN" "http://www.w3.org/Graphics/SVG/1.1/DTD/svg11.dtd">
<svg version="1.1"
	 id="Capa_1" shape-rendering="geometricPrecision" text-rendering="geometricPrecision" image-rendering="optimizeQuality"
	 xmlns="http://www.w3.org/2000/svg" xmlns:xlink="http://www.w3.org/1999/xlink" x="0px" y="0px" width="300px" height="300px"
	 viewBox="0 0 300 300" enable-background="new 0 0 300 300" xml:space="preserve">
<path d="M196.5,8.432h-93l-46.499,66.84l17.76,108.149L92.523,291.57H150h57.477l17.762-108.149l17.761-108.149L196.5,8.432z
	 M201.293,178.191l-12.451,92.763H148.54h-40.3l-12.453-92.763L83.332,85.43L115.937,28.1h65.208l32.603,57.331L201.293,178.191z"/>
<path d="M165.484,78.586c-3.508,0-7.01,0-10.512,0c-0.439,0-0.2-6.25-0.2-6.895c0-3.693,0-7.387,0-11.074
	c0-1.583-6.68-0.702-8.114-0.702c-3.327,0-3.483-0.658-3.483,2.599c0,4.063,0,8.114,0,12.183c0,2.33,0.935,3.889-1.544,3.889
	c-4.417,0-8.83,0-13.25,0c-3.173,0-3.897-0.873-3.897,2.379c0,0.837-0.192,8.588,0.171,8.588c6.385,0,12.781,0,19.161,0
	c-0.857,14.382-1.712,28.78-2.574,43.174h16.753l-3.224-43.174c3.47,0,15.573,2.054,18.048,0c0.971-0.806,0-8.415,0-9.822
	C172.82,77.396,167.388,78.586,165.484,78.586z"/>
<path d="M151.078,136.596c-3.255,0-9.941-1.572-12.081,1.252c-3.117,4.088-6.234,8.189-9.358,12.278h42.536
	c-3.26-3.815-6.525-7.613-9.784-11.407C159.461,135.293,155.508,136.596,151.078,136.596z"/>
</svg>
