<?xml version="1.0" encoding="utf-8"?>
<!-- Generator: Adobe Illustrator 16.0.4, SVG Export Plug-In . SVG Version: 6.00 Build 0)  -->
<!DOCTYPE svg PUBLIC "-//W3C//DTD SVG 1.1//EN" "http://www.w3.org/Graphics/SVG/1.1/DTD/svg11.dtd">
<svg version="1.1"
	 id="Capa_1" shape-rendering="geometricPrecision" text-rendering="geometricPrecision" image-rendering="optimizeQuality"
	 xmlns="http://www.w3.org/2000/svg" xmlns:xlink="http://www.w3.org/1999/xlink" x="0px" y="0px" width="300px" height="300px"
	 viewBox="0 0 300 300" enable-background="new 0 0 300 300" xml:space="preserve">
<g>
	<path d="M96.107,97.834c-2.192-13.401,14.278-11.185,17.736-2.664c-4.325-18.091,8.81-18.751,16.177-14.645
		c-2.679-11.602,1.766-16.386,10.714-17.398c-3.628-0.828-9.209-14.7,5.231-15.229c-11.714-10.754-3.6-20.966,0.908-23.883
		c-29.665,11.745-27.79,42.045-32.693,45.209c-4.686,3.111-9.07-1.191-11.244-5.274c1.356,5.262-4.166,8.745-8.155,2.864
		c1.072,8.038,3.789,13.364-7.318,10.371c-12.222-3.288-32.811-13.3-48.462-0.642c9.151-0.69,19.081,6.588,18.632,14.726
		c6.442-4.885,16.477,1.467,16.324,9.116C76.932,92.142,90.114,90.274,96.107,97.834z"/>
	<path d="M141.652,63.026c-0.316,0.026-0.612,0.068-0.917,0.102C141.061,63.203,141.373,63.182,141.652,63.026z"/>
	<path d="M226.549,190.061c49.104-126.764-146.782-158.714-121.308,1.432h0c-25.592,17.961-33.335,47.826-30.854,84.49
		l185.538-0.777C263.178,239.659,260.879,210.992,226.549,190.061z M173.791,232.688c-35.368,2.026-58.455-17.065-49.11-91.991
		c13.348-25.298,27.084-24.985,45.116-0.389c16.527-28.48,29.292-21.062,42.191-1.173
		C218.905,195.824,204.162,231.992,173.791,232.688z"/>
	<path d="M141.246,203.514h3.688c0.513,5.109,3.071,8.592,7.225,10.819c-2.245-3.312-3.235-6.837-1.597-10.819h32.516
		c1.639,3.982,0.648,7.508-1.597,10.819c4.153-2.228,6.712-5.71,7.225-10.819h5.161v-5.068h-52.622V203.514z"/>
	<path d="M146.425,171.947c3.124,0,5.651-2.529,5.651-5.652s-2.527-5.651-5.651-5.651c-3.123,0-5.65,2.528-5.65,5.651
		S143.302,171.947,146.425,171.947z"/>
	<circle cx="190.668" cy="166.295" r="5.652"/>
</g>
</svg>
