<?xml version="1.0" encoding="iso-8859-1"?>
<!-- Generator: Adobe Illustrator 16.0.4, SVG Export Plug-In . SVG Version: 6.00 Build 0)  -->
<!DOCTYPE svg PUBLIC "-//W3C//DTD SVG 1.1//EN" "http://www.w3.org/Graphics/SVG/1.1/DTD/svg11.dtd">
<svg version="1.1"
	 id="Capa_1" text-rendering="geometricPrecision" image-rendering="optimizeQuality" shape-rendering="geometricPrecision"
	 xmlns="http://www.w3.org/2000/svg" xmlns:xlink="http://www.w3.org/1999/xlink" x="0px" y="0px" width="300px" height="300px"
	 viewBox="0 0 300 300" style="enable-background:new 0 0 300 300;" xml:space="preserve">
<path d="M257.184,120.022c-11.592-45.333-25.152-55.611-40.246-38.556c-7.488-26.783-22.85-47.706-52.236-52.93
	c-7.469-2.4-15.128-2.611-22.618-0.586c-32.112,4.087-47.515,29.577-54.256,61.167c-16.624-9.692-31.675,3.96-44.777,46.57
	c-4.475,15.728,6.347,27.396,13.787,15.424c11.973-17.309,20.719-25.052,26.626-24.319c-1.079,27.736,1.561,55.662,3.586,75.476
	c-6.657,26.486,2.196,34.407,26.028,24.361c-13.624,35.946,13.095,51.335,32.337,18.27c13.715,45.913,35.14,30.487,31.547-4.575
	c18.438,33.299,40.074,22.3,31.3-10.948h0.001c20.937,16.745,33.586,3.085,10.51-26.091c2.592-24.594,6.135-58.033,3.65-89.156
	c4.32-6.46,12.127-0.389,24.043,20.316C252.248,145.633,260.662,134.72,257.184,120.022z M173.581,83.267
	c6.185,0,11.202,7.94,11.202,17.739c0,9.799-5.018,17.74-11.202,17.74c-6.183,0-11.202-7.941-11.202-17.74
	C162.379,91.207,167.398,83.267,173.581,83.267z M130.394,83.457c6.183,0,11.203,7.941,11.203,17.739
	c0,9.798-5.02,17.74-11.203,17.74c-6.184,0-11.203-7.942-11.203-17.74C119.191,91.398,124.21,83.457,130.394,83.457z
	 M117.031,181.311c24.544-61.591,49.633-56.537,75.08,0.861C166.664,154.062,141.576,151.14,117.031,181.311z"/>
</svg>
