<?xml version="1.0" encoding="iso-8859-1"?>
<!-- Generator: Adobe Illustrator 16.0.4, SVG Export Plug-In . SVG Version: 6.00 Build 0)  -->
<!DOCTYPE svg PUBLIC "-//W3C//DTD SVG 1.1//EN" "http://www.w3.org/Graphics/SVG/1.1/DTD/svg11.dtd">
<svg version="1.1"
	 id="Capa_1" text-rendering="geometricPrecision" image-rendering="optimizeQuality" shape-rendering="geometricPrecision"
	 xmlns="http://www.w3.org/2000/svg" xmlns:xlink="http://www.w3.org/1999/xlink" x="0px" y="0px" width="300px" height="300px"
	 viewBox="0 0 300 300" style="enable-background:new 0 0 300 300;" xml:space="preserve">
<g>
	<path d="M150.415,44.515c0.214-1.438-0.077-2.954-1.055-3.79c-0.555-0.47-1.015-0.306-1.144,0.143
		c-0.639,2.27-2.602,3.694-3.405,4.906C143.504,48.662,149.393,50.056,150.415,44.515z"/>
	<path d="M149.871,51.163c-0.052,0.351,0.021,0.726,0.262,0.927c0.135,0.117,0.245,0.077,0.278-0.037
		c0.157-0.555,0.639-0.905,0.833-1.198C151.564,50.148,150.123,49.804,149.871,51.163z"/>
	<path d="M152.74,52.053c0.033,0.113,0.142,0.153,0.273,0.037c0.245-0.201,0.314-0.577,0.263-0.927
		c-0.251-1.358-1.694-1.015-1.372-0.307C152.102,51.148,152.583,51.498,152.74,52.053z"/>
	<path d="M154.313,40.868c-0.128-0.449-0.58-0.613-1.139-0.143c-0.979,0.836-1.267,2.352-1.056,3.79
		c1.022,5.541,6.91,4.147,5.604,1.259C156.92,44.562,154.956,43.138,154.313,40.868z"/>
	<path d="M260.549,270.97l-25.656-0.606c2.552-1.764,3.589-3.355,2.414-6.033l14.488,0.225c4.242,0.534,4.6-4.438-0.901-6.26
		c-4.093-0.774-11.78-1.767-24.302-0.08c3.051-3.165,2.416-6.342-1.578-9.51c20.721,3.029-0.328-21.298-20.534-19.729
		c11.171-7.238,6.918-12.295,2.388-15.592c-2.461-1.733-1.062-7.845-4.275-9.729c-2.441-12.652-1.891-20.753,3.322-21.73
		c5.947-12.146,14.767-20.24,25.543-25.544c0.609-2.289,1.654-5.902-0.555-8.195c-2.799-2.556-3.106-1.548-8.221-2.11l-2.57-23.466
		c-0.059-3.387-0.545-8.947-4.829-10.115c0.331-4.093-0.201-8.014-1.888-11.697c-3.688-6.17-6.797-12.92-12.901-16.676
		c-2.263-14.307-9.671-23.283-23.607-25.521c-10.843-44.457-48.148-61.384-43.702-2.245c-13.602,4.515-27.849,13.781-37.426,24.751
		C83.656,85.93,70.65,95.29,55.31,109.782l-9.079,2.084l-1.229-3.193c-3.129-20.962-6.513-41.942-5.089-62.549
		c39.302-2.867,59.972-4.615,81.849,10.371c-7.461-23.12-43.968-25.605-80.739-25.685v-4.513h-8.904v4.531l-2.116,0.01v15.997
		l2.979-0.211c0.744,19.428,4.158,40.664,8.87,63.556l0.88,2.494l-2.504,0.573c-2.355,7.791-1.063,12.891,6.64,19.473v0.001
		c0.807-0.34,1.588-0.628,2.34-0.873c14.839,45.682,25.704,91.761,34.904,138.009l6.166,0.445
		c-10.101-47.921-21.881-95.554-37.087-139.328c2.815-0.281,5.119,0.325,6.94,1.756c7.494,7.447,6.392,26.361,12.981,30.485
		c0.95,11.613,6.443,18.43,17.044,23.996c6.71,2.588,11.248,7.874,15.847,15.245c5.19-10.766,3.972-18.866,1.512-30.038
		c1.073-8.742,11.878,3.326,12.674,11.018l-7.849,9.36l0.606,27.468l-8.451,21.125l-3.019,14.789l3.019,14.488
		c10.692-1.818,19.99-1.711,27.466,0.906c3.742,7.954,11.051,8.045,20.826,2.717c10.135,3.215,19.359,3.521,27.471,0.302
		c8.057,4.417,18.6,6.345,31.089,6.338c17.774,1.47,34.038,0.851,48.601-2.11C277.155,276.854,268.777,271.035,260.549,270.97z
		 M143,53.349c-1.216-26.623,17.818-22.283,17.808,0.15C166.576,73.066,134.936,69.456,143,53.349z"/>
	<path d="M150.444,54.557L150.444,54.557c-1.57,0.53-2.396,2.796-1.296,5.629c1.088,2.837,1.533,5.152,4.826,4.166
		c3.3-0.986,1.383-3.026,1.244-6.297C155.076,54.78,152.018,54.021,150.444,54.557z"/>
</g>
</svg>
