<?xml version="1.0" encoding="utf-8"?>
<!-- Generator: Adobe Illustrator 16.0.4, SVG Export Plug-In . SVG Version: 6.00 Build 0)  -->
<!DOCTYPE svg PUBLIC "-//W3C//DTD SVG 1.1//EN" "http://www.w3.org/Graphics/SVG/1.1/DTD/svg11.dtd">
<svg version="1.1"
	 id="Capa_1" shape-rendering="geometricPrecision" text-rendering="geometricPrecision" image-rendering="optimizeQuality"
	 xmlns="http://www.w3.org/2000/svg" xmlns:xlink="http://www.w3.org/1999/xlink" x="0px" y="0px" width="300px" height="300px"
	 viewBox="0 0 300 300" enable-background="new 0 0 300 300" xml:space="preserve">
<path d="M269,276.731c-17.086-26.192-14.337-56.491-1.542-88.865c-6.191-1.604-12.112-3.37-17.765-5.296v-61.417l12.743,0.062
	c-22.667-14.249-34.901-31.344-40.569-50.229c-6.43,21.826-18.812,38.838-38.638,49.844l11.212,0.056V151.5
	c-6.632-6.105-12.295-12.781-17-20.027V71.892l12.742,0.061c-22.666-14.25-34.901-31.344-40.569-50.229
	c-6.429,21.826-18.812,38.838-38.638,49.842l11.212,0.056v58.141c-5.228,6.551-10.844,12.812-17.001,18.672v-27.671l12.743,0.062
	C95.265,106.577,83.029,89.482,77.36,70.597c-6.428,21.827-18.812,38.839-38.636,49.844l11.212,0.056v61.316
	c-5.949,2.026-7.819,2.609-14.506,4.091c9.533,30.397,8.452,66.228-4.431,92.373L269,276.731z M226.866,128.332h14.665v15.118
	h-14.665V128.332z M226.866,151.385h14.665v14.816h-14.665V151.385z M234.268,203.693l-0.164,63.686l-21.481,7.284v-67.808
	L234.268,203.693z M203.662,128.332h15.27v15.118h-15.27V128.332z M203.662,151.385h15.27v14.816h-15.27V151.385z M153.836,82.164
	h14.665V97.28h-14.665V82.164z M153.836,105.215h14.665v14.817h-14.665V105.215z M149.643,206.85h18.934v32.068h-18.934V206.85z
	 M149.45,242.978h18.935v32.068H149.45V242.978z M130.632,82.164h15.27V97.28h-15.27V82.164z M130.632,105.215h15.27v14.817h-15.27
	V105.215z M126.074,206.85h18.934v32.068h-18.934V206.85z M126.074,242.978h18.934v32.068h-18.934V242.978z M80.816,128.332H95.48
	v15.118H80.816V128.332z M80.816,151.385H95.48v14.816H80.816V151.385z M95.641,206.641l0.139,66.148l-26.89,1.874v-67.808
	L95.641,206.641z M57.611,128.332h15.27v15.118h-15.27V128.332z M57.611,151.385h15.27v14.816h-15.27V151.385z"/>
</svg>
