<?xml version="1.0" encoding="utf-8"?>
<!-- Generator: Adobe Illustrator 16.0.4, SVG Export Plug-In . SVG Version: 6.00 Build 0)  -->
<!DOCTYPE svg PUBLIC "-//W3C//DTD SVG 1.1//EN" "http://www.w3.org/Graphics/SVG/1.1/DTD/svg11.dtd">
<svg version="1.1"
	 id="Capa_1" shape-rendering="geometricPrecision" text-rendering="geometricPrecision" image-rendering="optimizeQuality"
	 xmlns="http://www.w3.org/2000/svg" xmlns:xlink="http://www.w3.org/1999/xlink" x="0px" y="0px" width="300px" height="300px"
	 viewBox="0 0 300 300" enable-background="new 0 0 300 300" xml:space="preserve">
<path d="M125.257,210.223h44.813l-8.623-115.487c9.285,0,41.658,5.492,48.279,0c2.596-2.159,0-22.507,0-26.273
	c0-6.247-14.534-3.062-19.625-3.062c-9.381,0-18.747,0-28.119,0c-1.172,0-0.535-16.717-0.535-18.443c0-9.878,0-19.76,0-29.622
	c0-4.234-17.869-1.877-21.704-1.877c-8.901,0-9.319-1.76-9.319,6.952c0,10.869,0,21.704,0,32.588c0,6.231,2.504,10.402-4.127,10.402
	c-11.817,0-23.62,0-35.446,0c-8.487,0-10.422-2.334-10.422,6.363c0,2.242-0.515,22.974,0.457,22.974c17.081,0,34.187,0,51.254,0
	C129.847,133.205,127.562,171.718,125.257,210.223L125.257,210.223z"/>
<path d="M69.931,214.482c30.729,0,61.46,0,92.188,0c18.257,0,36.505,0,54.759,0c3.963,0,7.938,0,11.904,0
	c1.401,0,3.84,18.117,5.645,32.65H65.573L69.931,214.482L69.931,214.482z"/>
<path d="M53.264,252.546c37.125,0,74.252,0,111.376,0c22.057,0,44.104,0,66.156,0c4.789,0,9.591,0,14.383,0
	c1.693,0,4.641,18.117,6.819,32.65H48L53.264,252.546L53.264,252.546z"/>
</svg>
