<?xml version="1.0" encoding="UTF-8" standalone="no"?>
<!DOCTYPE svg PUBLIC "-//W3C//DTD SVG 1.0//EN" "http://www.w3.org/TR/2001/REC-SVG-20010904/DTD/svg10.dtd">
<!-- Created with Inkscape (http://www.inkscape.org/) -->
<svg
   xmlns:svg="http://www.w3.org/2000/svg"
   xmlns="http://www.w3.org/2000/svg"
   version="1.0"
   width="800"
   height="510"
   id="svg2">
  <defs
     id="defs4" />
  <g
     id="layer1">
    <path
       d="M 670.74129,254.52783 A 170.71577,170.71577 0 1 1 329.30974,254.52783 A 170.71577,170.71577 0 1 1 670.74129,254.52783 z"
       transform="matrix(1.4556214,0,0,1.4556214,-180.55398,-114.95815)"
       id="path3239"
       style="opacity:1;fill:#8b0103;fill-opacity:1;fill-rule:nonzero;stroke:none;stroke-width:2;stroke-linecap:butt;stroke-linejoin:round;stroke-miterlimit:4;stroke-dasharray:none;stroke-opacity:1" />
    <path
       d="M 125.7721,210.45232 L 56.722791,210.45232 L 56.722791,330.12111 L 36.239271,330.12111 L 36.239271,210.45232 L 5.5229101,210.45232 L 5.5229101,192.89756 L 36.239271,192.89756 L 36.239271,181.19142 C 36.239229,163.83327 40.726142,151.59436 49.699998,144.47465 C 58.673768,137.35532 72.327949,133.79556 90.662582,133.79536 L 125.7721,133.20603 L 125.7721,150.76078 L 97.689846,150.76078 C 83.254271,150.76097 72.817559,152.51704 66.379697,156.02901 C 59.941708,159.54131 56.722735,167.92877 56.722791,181.19142 L 56.722791,192.89756 L 125.7721,192.89756 L 125.7721,210.45232 z"
       id="text3224"
       style="font-size:208.14413452px;font-style:normal;font-variant:normal;font-weight:normal;font-stretch:normal;text-align:start;line-height:100%;writing-mode:lr-tb;text-anchor:start;fill:#1b1c20;fill-opacity:1;stroke:none;stroke-width:1px;stroke-linecap:butt;stroke-linejoin:miter;stroke-opacity:1;font-family:Eurostile Extended;-inkscape-font-specification:Eurostile Extended" />
    <path
       d="M 158.74665,220.1048 C 162.48417,207.81838 168.94293,199.82231 178.12299,196.11658 C 187.30295,192.41111 198.6628,190.5583 212.20255,190.55816 C 234.30001,190.5583 250.64047,193.5332 261.22397,199.48287 C 271.8072,205.43279 279.10704,220.40254 279.10721,244.39215 L 279.10721,330.12115 L 260.75737,330.12115 L 260.75737,244.39215 C 260.75724,236.39171 259.86204,229.90466 258.07177,224.93102 C 256.28121,219.95759 253.01264,216.3502 248.26604,214.10886 C 243.51921,211.86775 238.38423,210.40486 232.86115,209.72017 C 227.33783,209.03571 221.38485,208.69345 215.00214,208.69332 C 197.72958,208.69345 184.03556,210.98525 173.92003,215.56877 C 163.80441,220.15253 158.74662,231.41817 158.74665,249.36569 L 158.74665,330.12115 L 139.39274,330.12115 L 139.39274,133.20607 L 158.74665,133.20607 L 158.74665,220.1048 z"
       id="text3228"
       style="font-size:185.91307068px;font-style:normal;font-variant:normal;font-weight:normal;font-stretch:normal;text-align:start;line-height:100%;writing-mode:lr-tb;text-anchor:start;fill:#1b1c20;fill-opacity:1;stroke:none;stroke-width:1px;stroke-linecap:butt;stroke-linejoin:miter;stroke-opacity:1;font-family:Eurostile Extended;-inkscape-font-specification:Eurostile Extended" />
    <path
       d="M 408.33526,207.81821 L 371.69627,206.64848 C 363.9071,206.6486 357.57913,206.74681 352.71239,206.94315 C 347.84547,207.13971 342.35882,207.72457 336.25238,208.69773 C 330.14583,209.67112 325.27765,211.47481 321.64784,214.10881 C 318.01792,216.74302 316.20299,221.1823 316.20303,227.42666 C 316.20299,235.81422 318.10571,241.32501 321.91116,243.95904 C 325.71654,246.59322 331.68933,247.91027 339.82959,247.91019 L 371.95555,248.78525 L 406.7391,248.78525 C 422.13889,248.78533 433.55514,251.46705 440.98789,256.83043 C 448.4203,262.19396 452.13658,272.77503 452.13677,288.57365 C 452.13658,306.71774 447.7559,318.08161 438.99469,322.66523 C 430.23317,327.24887 416.7373,329.54069 398.50708,329.54071 L 363.73163,330.1211 C 353.10661,330.1211 345.00694,329.97526 339.43257,329.68357 C 333.85807,329.39188 326.95619,328.31889 318.72692,326.4646 C 310.49757,324.6103 304.43563,320.61154 300.54112,314.46824 C 296.64655,308.32499 294.69928,299.40179 294.6993,287.6986 L 294.96668,281.55533 L 313.81282,281.55533 L 314.0802,284.76983 C 314.08016,294.13358 315.85055,300.57151 319.39132,304.08362 C 322.93201,307.59578 329.12629,309.83999 337.97414,310.81621 L 370.62675,311.98594 L 376.2093,311.98594 L 380.98162,311.98594 C 391.95752,311.98595 401.78166,311.44871 410.45405,310.37421 C 419.12615,309.29977 424.9234,307.54371 427.84581,305.10601 C 430.76793,302.66837 432.22904,298.23206 432.22921,291.79708 C 432.22904,282.04051 430.06032,275.40763 425.72299,271.89841 C 421.38536,268.38931 414.43893,266.63473 404.88365,266.63467 L 371.16152,266.34 L 339.03555,266.34 C 325.05079,266.34006 314.42993,263.90241 307.17293,259.02701 C 299.91586,254.15174 296.28735,244.39814 296.28736,229.7661 C 296.28735,216.11054 299.82809,206.11285 306.90958,199.77301 C 313.99104,193.43343 323.81382,190.26359 336.37797,190.26344 L 371.69627,188.51332 C 378.24289,188.51346 384.61408,188.56109 390.80981,188.65618 C 397.00531,188.75158 403.99766,189.19208 411.78688,189.97771 C 424.70734,189.97785 433.86573,192.95126 439.26207,198.89795 C 444.6581,204.8449 447.35619,214.84259 447.35635,228.89104 L 428.77758,228.89104 C 428.06983,221.08707 426.4318,215.86796 423.86348,213.23375 C 421.29489,210.59975 416.11881,208.79457 408.33526,207.81821 L 408.33526,207.81821 z"
       id="text3232"
       style="font-size:198.27365112px;font-style:normal;font-variant:normal;font-weight:normal;font-stretch:normal;text-align:start;line-height:100%;writing-mode:lr-tb;text-anchor:start;fill:#ffffff;fill-opacity:1;stroke:none;stroke-width:1px;stroke-linecap:butt;stroke-linejoin:miter;stroke-opacity:1;font-family:Eurostile Extended;-inkscape-font-specification:Eurostile Extended" />
  </g>
</svg>
