<?xml version="1.0" encoding="iso-8859-1"?>
<!-- Generator: Adobe Illustrator 16.0.4, SVG Export Plug-In . SVG Version: 6.00 Build 0)  -->
<!DOCTYPE svg PUBLIC "-//W3C//DTD SVG 1.1//EN" "http://www.w3.org/Graphics/SVG/1.1/DTD/svg11.dtd">
<svg version="1.1"
	 id="Capa_1" text-rendering="geometricPrecision" image-rendering="optimizeQuality" shape-rendering="geometricPrecision"
	 xmlns="http://www.w3.org/2000/svg" xmlns:xlink="http://www.w3.org/1999/xlink" x="0px" y="0px" width="300px" height="300px"
	 viewBox="0 0 300 300" style="enable-background:new 0 0 300 300;" xml:space="preserve">
<path d="M271.269,119.46L271.269,119.46c-1.146-4.976-2.69-9.548-4.581-13.756c-7.486-16.514-19.004-25.258-32.879-30.39
	c-13.369-4.924-24.25-5.248-34.84-0.038c-7.666,3.754-14.177,10.069-20.371,19.564c-7.947-4.168-15.707-6.586-23.846-7.404
	c0.297-3.273,0.919-6.456,1.805-9.614c2.219-7.274,5.631-13.292,10.113-18.462c-3.944-2.936-7.718-6.105-11.301-9.496
	c-9.775,8.614-16.39,20.644-18.411,38.599c-5.708,1.182-11.208,3.144-16.671,5.924c-6.095-9.158-12.45-15.253-19.883-18.837
	c-10.481-5.106-21.404-4.768-34.944-0.119c-14.057,4.846-25.528,13.045-32.718,28.909c-2.12,4.742-3.665,9.978-4.5,15.823
	c-3.544,21.126,0.235,46.954,14.702,73.991c12.979,24.347,29.194,39.715,45.401,45.393c8.527,3.002,16.956,2.197,24.716-2.248
	c12.026,8.614,24.145,12.785,35.394,12.838c12.11,0.064,24.876-4.365,37.244-13.525c8.003,4.859,16.666,5.821,25.404,2.716
	c16.618-5.872,33.211-21.593,46.461-46.355C272.243,165.323,275.539,139.664,271.269,119.46z M178.146,132.127
	c2.344-7.107,4.333-14.407,5.904-21.839c6.014,6.456,10.642,14.577,16.561,21.098c1.043,1.158,8.005,6.913,7.725,7.667
	c-0.561,1.571-1.115,3.13-1.674,4.703l-2.93-1.637c-9.761,5.157-19.732,9.082-30.447,7.976
	C170.775,142.938,176.135,138.248,178.146,132.127z M131.091,168.467c5.726-12.109,13.742-21.892,16.841-35.755
	c4.571,0.961,6.224,13.382,8.483,17.956c2.127,4.299,12.731,16.148,9.414,21.633c-3.037-5.444-6.379,0.363-9.76,1.232
	c-3.474,0.885-6.631,0.223-10.092,0C143.076,173.353,128.197,176.651,131.091,168.467z M94.36,127.828
	c5.784-5.523,13.129-13.161,20.092-16.487c3.447,1.896,2.582,7.106,4.131,10.587c1.69,3.807,3.707,7.587,5.556,11.304
	c0.818,1.637,11.166,22.619,4.085,19.474c-3.925-1.727-8.844-2.258-13.026-3.547c-3.598-1.091-7.246-1.897-10.927-2.403
	c-7.771-1.052-15.193-1.636-22.472-4.458C76.056,139.976,93.687,128.463,94.36,127.828z M209.04,185.006
	c-3.411,6.859-8.148,12.667-13.374,17.513c-2.731,2.547-10.521,4.718-11.553,2.729c-2.474,0.61-5.014,0.911-7.538,0.753
	c-3.337-0.168-6.511,0.168-7.53,4.289c-0.842,3.352-1.676,6.716-2.51,10.066c-0.876,3.522-8.485,4.081-11.077,4.379
	c-5.499,0.664-11.16,0.132-16.598-0.986c-5.495-1.896-11-0.585-16.458-2.027c-8.396-2.221-6.894-5.703-6.21-14.484
	c-6.562,2.493-9.816-6.588-16.182-6.614c-1.981,1.819-2.873,4.247-2.629,7.313c-4.011-2.259-9.61-4.168-12.706-8.262
	c-6.977-9.236-13.357-22.126-12.274-35.339c4.458,4.365,15.309,7.757,9.362,17.214c2.84,3.275,12.451,8.977,12.508,0.132
	c9.294,4.052,18.401,10.236,27.981,13.003c4.125,1.196,8.392,1.586,12.612,1.055c3.644,4.729-2.323,8.326,4.147,10.328
	c4.981,1.518,9.771,3.521,14.953,3.559c2.318-3.858,3.986-8.302,4.676-13.068c3.016-1.443,23.522-10.227,23.938-6.626
	c0.291,0.143,1.727,4.521,6.186,4.091c2.533-0.26,5.146,0.26,5.84-3.56c0.731-3.95-1.653-6.209,1.416-9.328
	c1.715-1.739,3.871-2.923,5.909-3.897c9.999-4.832,15.753-21.32,18.672-33.182C224.316,159.32,215.037,172.949,209.04,185.006z"/>
</svg>
