<?xml version="1.0" encoding="iso-8859-1"?>
<!-- Generator: Adobe Illustrator 16.0.0, SVG Export Plug-In . SVG Version: 6.00 Build 0)  -->
<!DOCTYPE svg PUBLIC "-//W3C//DTD SVG 1.1//EN" "http://www.w3.org/Graphics/SVG/1.1/DTD/svg11.dtd">
<svg version="1.1" xmlns="http://www.w3.org/2000/svg" xmlns:xlink="http://www.w3.org/1999/xlink" x="0px" y="0px"
	 width="36.933px" height="37.796px" viewBox="0 0 36.933 37.796" style="enable-background:new 0 0 36.933 37.796;"
	 xml:space="preserve">
<g id="b33_pumpkin">
	<path d="M36.933,23.338c0-5.842-1.658-11.561-8.144-13.155c-3.768-3.227-8.449-1.304-8.449-1.304h-0.881v0.083
		c0,0,0.717,2.084-0.18,4.678c0,0-0.165-4.238-0.95-4.761c0,0-3.52-2.022-6.642,0C5.732,6.581,0,15.352,0,23.338
		c0,7.986,6.24,14.458,13.938,14.458c-1.763-1.887-3.188-4.099-4.283-6.464c-1.104-2.365-1.855-4.913-2.178-7.533
		c-0.297-2.617-0.143-5.312,0.588-7.847c0.694-2.542,1.978-4.888,3.623-6.867c-1.194,2.283-2.078,4.673-2.566,7.123
		c-0.479,2.452-0.563,4.958-0.261,7.431c0.277,2.475,0.929,4.909,1.794,7.275c0.895,2.355,1.957,4.676,3.283,6.882h3.348
		c2.031-1.329,2.363-4.761,2.363-4.761c0.898,2.593-1.262,4.761-1.262,4.761h4.609c1.74,0,3.399-0.345,4.934-0.947
		c0.514-0.589,0.951-1.177,1.281-1.835c0.521-0.998,0.815-2.094,1.061-3.359c0.581,1.178,0.475,2.635-0.133,3.838
		c-0.077,0.15-0.954,1.047-1.049,1.188C33.312,34.195,36.933,28.733,36.933,23.338z M30.324,17.116
		c0.057-1.301,0.068-2.417-0.216-3.509c-0.263-1.093-0.765-2.113-1.411-3.227c1.213,0.501,2.09,1.67,2.424,2.977
		C31.449,14.672,31.164,16.121,30.324,17.116z"/>
	<path d="M19.498,2.399C18.84,1.184,17.762,0.377,16.293,0l-0.348,1.349c1.091,0.281,1.852,0.842,2.324,1.712
		c1.209,2.231,0.064,5.784,0.053,5.818h1.32C19.697,8.712,20.995,5.17,19.498,2.399z"/>
</g>
<g id="Capa_1">
</g>
</svg>
