<?xml version="1.0" encoding="utf-8"?>
<!-- Generator: Adobe Illustrator 16.0.4, SVG Export Plug-In . SVG Version: 6.00 Build 0)  -->
<!DOCTYPE svg PUBLIC "-//W3C//DTD SVG 1.1//EN" "http://www.w3.org/Graphics/SVG/1.1/DTD/svg11.dtd">
<svg version="1.1"
	 id="Capa_1" shape-rendering="geometricPrecision" text-rendering="geometricPrecision" image-rendering="optimizeQuality"
	 xmlns="http://www.w3.org/2000/svg" xmlns:xlink="http://www.w3.org/1999/xlink" x="0px" y="0px" width="300px" height="300px"
	 viewBox="0 0 300 300" enable-background="new 0 0 300 300" xml:space="preserve">
<g>
	<rect x="145.091" y="181.629" stroke="#000000" stroke-width="2.083" width="19.764" height="14.746"/>
	<path stroke="#000000" stroke-width="2.083" d="M206.821,184.99c-3.581-19.51-7.888-80.442-7.888-80.442l-2.805-6.772l1.111-4.028
		l-1.168-6.656c0,0,43.031-27.322,47.704-35.206c4.67-7.882-96.223,12.843-96.223,12.843l-5.955,2.86c0,0-5.779,0.409-9.635,8.348
		c-0.717,1.479-2.12,7.395-4.037,15.494l14.316,20.793l-18.192-4.717c-2.58,10.354-5.613,21.652-8.903,31.312
		c-6.238,18.318-13.337,31.162-17.598,37.261c-44.055-5.135-84.287-8.824-85.502,4.122c-1.728,18.403,47.043,60.873,134.392,68.654
		c87.346,7.783,139.807-29.696,141.533-48.103C289.19,187.759,250.312,186.46,206.821,184.99z M171.596,201.34h-33.745v-25.175
		h33.745V201.34z"/>
</g>
</svg>
